<?xml version="1.0" encoding="utf-8"?>
<!-- Generator: Adobe Illustrator 22.0.1, SVG Export Plug-In . SVG Version: 6.00 Build 0)  -->
<svg version="1.1"
	 id="Layer_1" xmlns:cc="http://creativecommons.org/ns#" xmlns:dc="http://purl.org/dc/elements/1.1/" xmlns:inkscape="http://www.inkscape.org/namespaces/inkscape" xmlns:rdf="http://www.w3.org/1999/02/22-rdf-syntax-ns#" xmlns:sodipodi="http://sodipodi.sourceforge.net/DTD/sodipodi-0.dtd" xmlns:svg="http://www.w3.org/2000/svg"
	 xmlns="http://www.w3.org/2000/svg" xmlns:xlink="http://www.w3.org/1999/xlink" x="0px" y="0px" viewBox="0 0 612 635.5"
	 style="enable-background:new 0 0 612 635.5;" xml:space="preserve">
<style type="text/css">
	.st0{fill:#BFBFBF;}
</style>
<g>
	<path class="st0" d="M575.3,295.5c0,4.7-1.8,8.8-5.4,12.5L317.5,560.4c-3.6,3.6-7.8,5.4-12.5,5.4c-4.7,0-8.8-1.8-12.5-5.4
		L40.1,307.9c-3.6-3.6-5.4-7.8-5.4-12.5s1.8-8.8,5.4-12.5l27.1-27.1c3.6-3.6,7.8-5.4,12.5-5.4c4.7,0,8.8,1.8,12.5,5.4L305,468.8
		l212.9-212.9c3.6-3.6,7.8-5.4,12.5-5.4c4.7,0,8.8,1.8,12.5,5.4l27.1,27.1C573.5,286.6,575.3,290.8,575.3,295.5L575.3,295.5z"/>
</g>
</svg>
