<?xml version="1.0" encoding="utf-8"?>
<!-- Generator: Adobe Illustrator 22.0.1, SVG Export Plug-In . SVG Version: 6.00 Build 0)  -->
<svg version="1.1"
	 id="Layer_1" xmlns:cc="http://creativecommons.org/ns#" xmlns:dc="http://purl.org/dc/elements/1.1/" xmlns:inkscape="http://www.inkscape.org/namespaces/inkscape" xmlns:rdf="http://www.w3.org/1999/02/22-rdf-syntax-ns#" xmlns:sodipodi="http://sodipodi.sourceforge.net/DTD/sodipodi-0.dtd" xmlns:svg="http://www.w3.org/2000/svg"
	 xmlns="http://www.w3.org/2000/svg" xmlns:xlink="http://www.w3.org/1999/xlink" x="0px" y="0px" viewBox="0 0 612 635.5"
	 style="enable-background:new 0 0 612 635.5;" xml:space="preserve">
<style type="text/css">
	.st0{fill:#BFBFBF;}
</style>
<g>
	<path class="st0" d="M404.2,136.2L404.2,136.2L404.2,136.2z"/>
	<path class="st0" d="M132.4,216.4L132.4,216.4L132.4,216.4z"/>
	<path class="st0" d="M213.5,164.1c6.3,2.7,13.6,1.2,18.6-3.4l0,0c19.4-18.3,37.8-37.8,56.7-56.7c0,48.2,0,96.3,0,144.5
		c0,9.3-0.8,18.9,8.5,24.7c11.6,7.2,25.2-2,26-14.7c0.1-1.6,0-3.2,0-4.7c0-26.1,0-52.1,0-78.2c0-23.9,0-47.7,0-71.6
		c18.4,18.4,36.5,37.1,55.2,55.2c17,16.5,41.3-6.5,24.9-23.9c-7.5-7.9-15.5-15.5-23.2-23.2c-20.4-20.4-40.1-41.9-61.4-61.4
		c-10.6-9.7-20.9-4.6-29.4,3.8c-10.2,10.2-20.3,20.3-30.5,30.5c-13.4,13.4-26.8,26.8-40.2,40.2c-3.3,3.3-6.8,6.5-9.9,9.9
		C200.5,144.1,201,158.9,213.5,164.1C215.6,165,211.3,163.2,213.5,164.1z"/>
	<path class="st0" d="M304.1,45.2C304.1,45.3,304.1,45.3,304.1,45.2L304.1,45.2z"/>
	<path class="st0" d="M147.2,393.2L147.2,393.2L147.2,393.2z"/>
	<polygon class="st0" points="575.2,331.6 575.2,331.7 575.2,331.7 	"/>
	<path class="st0" d="M398.5,474.7c-6.4-2.7-14.1-1.2-19,3.8c-18.8,18.8-37.5,37.5-56.3,56.3c0-48.2,0-96.5,0-144.7c0-3,0.1-6,0-9
		c-0.5-10-8.5-19-19.1-17.8l0,0c-13.6,1.5-15.4,14-15.4,24.8c0,11.5,0,23.1,0,34.6c0,30,0,60,0,90.1c0,7.3,0,14.7,0,22
		c-11-11-22-22-33-33c-6.4-6.4-12.8-12.8-19.3-19.3c-5.1-5.1-10.1-9.9-18.1-9.1h0.1c-10.9,1.1-18.2,12.4-14.6,22.8
		c1.2,3.4,3.5,5.9,5.9,8.4c6,6.1,12.1,12.1,18.2,18.2c18.3,18.3,36.7,36.7,55,55c3.6,3.6,7.1,7.5,10.9,10.9
		c10.2,9.1,20.5,3.8,28.5-4.3c17.1-17.1,34.2-34.2,51.3-51.3c8.5-8.5,17-17,25.4-25.4c1.6-1.6,3.2-3,4.7-4.7
		C411.8,494.2,410.4,479.7,398.5,474.7C396.4,473.8,400.7,475.6,398.5,474.7z"/>
	<path class="st0" d="M146.8,392.8c-18.8-18.7-37.5-37.4-56.3-56.1c45.1,0,90.1,0,135.2,0c6.4,0,12.7,0,19.1,0
		c13.9,0.4,22.1-16.5,13.9-27.3c-3.8-5.1-9.4-7-15.6-7.2c-9.9-0.2-19.8,0-29.6,0c-32.5,0-64.9,0-97.4,0c-8.6,0-17.1,0-25.7,0
		c11-11,22-22,33-33c6.2-6.2,12.5-12.5,18.7-18.7c5.9-5.9,11.7-11.9,9.3-21.2c-3.6-14.2-20-16.2-29.6-7.3
		c-3.6,3.3-6.9,6.9-10.4,10.4c-14.6,14.6-29.1,29.1-43.7,43.7c-10.4,10.4-20.7,20.7-31.1,31.1l0,0c-10.4,10.3-3.1,21.4,4.9,29.4
		c8.4,8.4,16.8,16.8,25.2,25.2c17.9,17.9,35.6,35.9,53.6,53.6c4,3.9,8.3,7,14.2,7.1C150,422.6,157.7,403.3,146.8,392.8z"/>
	<path class="st0" d="M580.3,319.4c0-8.1-5.7-12.8-10.8-18c-7.2-7.2-14.4-14.4-21.6-21.6c-17-17-34-34-50.9-50.9
		c-6-6-11.8-13.4-21.4-12.5l0,0c-16.3,1.6-19.3,20.4-9.3,30.6c5.7,5.9,11.6,11.6,17.4,17.4c12.6,12.6,25.2,25.2,37.8,37.8
		c-48.9,0-97.7,0-146.6,0c-11.7,0-26.3,2.4-25.5,18l0,0c0.7,14.1,13.6,16.4,24.6,16.4c11.3,0,22.7,0,34,0c30.3,0,60.6,0,90.9,0
		c7.5,0,15,0,22.6,0c-13.8,13.8-27.6,27.5-41.4,41.3c-4.9,4.9-10.2,9.7-14.9,14.8c-15,16.6,8.4,40.7,24.3,24.5c26-26,52-52,78-78
		C573.1,333.7,580.3,328.2,580.3,319.4z"/>
</g>
</svg>
