<?xml version="1.0" encoding="utf-8"?>
<!-- Generator: Adobe Illustrator 22.0.1, SVG Export Plug-In . SVG Version: 6.00 Build 0)  -->
<svg version="1.1" id="圖層_1" xmlns="http://www.w3.org/2000/svg" xmlns:xlink="http://www.w3.org/1999/xlink" x="0px" y="0px"
	 viewBox="0 0 100 100" style="enable-background:new 0 0 100 100;" xml:space="preserve">
<style type="text/css">
	.st0{fill:#BFBFBF;}
</style>
<path class="st0" d="M77.9,94.9H8.2c-1.8,0-3.2-1.4-3.2-3.2V22c0-1.8,1.4-3.2,3.2-3.2h34.9c1.8,0,3.2,1.4,3.2,3.2s-1.4,3.2-3.2,3.2
	H11.4v63.3h63.3V56.9c0-1.8,1.4-3.2,3.2-3.2c1.8,0,3.2,1.4,3.2,3.2v34.9C81.1,93.5,79.7,94.9,77.9,94.9z"/>
<path class="st0" d="M94.1,16L84,6c-1.3-1.3-3.3-1.3-4.5,0l-9.1,9.1l-35,35c-0.3,0.3-0.5,0.6-0.7,1l-7.5,17.5
	c-0.5,1.2-0.2,2.6,0.7,3.5c0.6,0.6,1.4,0.9,2.3,0.9c0.4,0,0.9-0.1,1.3-0.3L49,65.4c0.4-0.2,0.7-0.4,1-0.7l35-35l9.1-9.1
	C95.3,19.3,95.3,17.3,94.1,16z M36.3,63.8l2.9-6.8l3.9,3.9L36.3,63.8z M46.9,58.6l-5.5-5.5L73,21.6l5.5,5.5L46.9,58.6z M81.5,24
	L76,18.6l5.7-5.7l5.5,5.5L81.5,24z"/>
</svg>
