<?xml version="1.0" encoding="utf-8"?>
<!-- Generator: Adobe Illustrator 22.0.1, SVG Export Plug-In . SVG Version: 6.00 Build 0)  -->
<svg version="1.1" id="Layer_1" xmlns="http://www.w3.org/2000/svg" xmlns:xlink="http://www.w3.org/1999/xlink" x="0px" y="0px"
	 viewBox="0 0 266.9 266.9" style="enable-background:new 0 0 266.9 266.9;" xml:space="preserve">
<style type="text/css">
	.st0{fill:#FFFFFF;}
</style>
<path class="st0" d="M262.3,18.8v229.3c0,7.9-6.4,14.2-14.2,14.2h-65.7v-99.8h33.5l5-38.9h-38.5V98.8c0-11.3,3.1-18.9,19.3-18.9
	l20.6,0V45c-3.6-0.5-15.8-1.5-30-1.5c-29.7,0-50,18.1-50,51.4v28.7h-33.6v38.9h33.6v99.8H18.8c-7.9,0-14.2-6.4-14.2-14.2V18.8
	c0-7.9,6.4-14.2,14.2-14.2h229.3C255.9,4.6,262.3,10.9,262.3,18.8z"/>
</svg>
