<?xml version="1.0" standalone="no"?>
<!DOCTYPE svg PUBLIC "-//W3C//DTD SVG 20010904//EN"
 "http://www.w3.org/TR/2001/REC-SVG-20010904/DTD/svg10.dtd">
<svg version="1.0" xmlns="http://www.w3.org/2000/svg"
 width="1084.000000pt" height="1084.000000pt" viewBox="0 0 1084.000000 1084.000000"
 preserveAspectRatio="xMidYMid meet">
<metadata>
Created by potrace 1.11, written by Peter Selinger 2001-2013
</metadata>
<g transform="translate(0.000000,1084.000000) scale(0.100000,-0.100000)"
fill="#000000" stroke="none">
<path d="M5217 10834 c-1 -1 -61 -5 -133 -8 -73 -4 -142 -9 -155 -11 -13 -2
-53 -7 -89 -10 -36 -3 -76 -7 -90 -9 -14 -3 -52 -7 -84 -11 -32 -3 -62 -7 -65
-10 -4 -2 -29 -6 -57 -10 -66 -7 -325 -60 -449 -91 -250 -62 -617 -187 -820
-279 -33 -15 -91 -41 -130 -58 -115 -51 -406 -203 -457 -238 -14 -11 -28 -19
-31 -19 -12 0 -268 -168 -387 -253 -127 -92 -307 -230 -325 -251 -5 -6 -23
-22 -40 -35 -154 -118 -513 -485 -685 -700 -19 -24 -47 -58 -61 -75 -79 -96
-279 -379 -279 -395 0 -6 -4 -11 -10 -11 -5 0 -10 -4 -10 -9 0 -5 -17 -36 -39
-68 -117 -177 -296 -524 -407 -791 -95 -227 -236 -662 -261 -802 -2 -14 -10
-50 -18 -80 -7 -30 -19 -82 -25 -115 -6 -33 -13 -71 -16 -85 -3 -14 -7 -36 -9
-50 -3 -14 -7 -36 -9 -50 -5 -25 -9 -51 -21 -140 -3 -25 -8 -54 -9 -65 -2 -11
-7 -54 -11 -95 -4 -41 -8 -85 -10 -96 -24 -155 -24 -833 -1 -974 2 -14 7 -61
11 -105 4 -44 8 -87 10 -95 2 -8 6 -37 9 -65 13 -91 17 -119 32 -200 8 -44 17
-96 20 -115 3 -19 7 -43 10 -52 3 -10 8 -30 10 -45 3 -16 21 -89 39 -165 198
-787 567 -1513 1090 -2143 210 -253 491 -532 736 -730 41 -33 85 -70 99 -82
14 -13 28 -23 32 -23 3 0 13 -6 20 -13 41 -42 334 -240 498 -339 379 -228 888
-450 1265 -554 154 -41 246 -65 315 -80 41 -8 84 -18 95 -20 88 -20 236 -45
370 -64 44 -6 105 -13 135 -16 30 -3 66 -7 79 -9 154 -26 843 -26 1040 0 19 2
66 7 105 10 38 3 72 7 75 9 3 2 31 7 62 10 31 4 67 9 80 11 13 3 76 14 139 25
697 124 1396 404 1995 799 210 139 469 338 645 496 61 55 343 337 405 405 78
86 246 287 275 330 8 13 20 28 25 34 19 20 132 180 196 276 174 263 320 531
439 805 28 66 58 134 65 150 84 181 228 657 284 940 22 108 24 123 41 230 6
39 13 81 15 95 17 108 23 166 44 420 8 97 6 687 -3 750 -2 19 -8 71 -11 115
-4 44 -9 91 -10 105 -9 77 -16 128 -20 150 -2 14 -7 45 -10 70 -14 109 -55
303 -97 470 -16 63 -31 122 -33 131 -12 58 -86 287 -132 414 -164 445 -370
844 -635 1224 -64 92 -130 185 -155 216 -185 233 -295 358 -473 535 -593 592
-1286 1025 -2073 1295 -133 46 -431 133 -513 149 -10 3 -39 9 -64 15 -25 5
-56 12 -70 14 -14 3 -63 12 -110 21 -47 9 -101 19 -120 22 -19 3 -46 7 -60 9
-14 3 -47 7 -75 10 -27 4 -63 8 -80 10 -83 11 -222 25 -306 31 -86 6 -556 13
-562 8z m2738 -3456 l0 -728 -35 -1 c-19 0 -398 -1 -842 -1 l-808 -1 0 -2207
c0 -1757 -3 -2209 -12 -2212 -7 -2 -389 -4 -848 -4 l-835 1 -2 2190 c-1 1205
-2 2200 -3 2211 l0 22 -840 -2 c-834 -1 -840 -1 -840 19 -1 30 -1 1235 -1
1347 l1 96 2532 -1 2533 -2 0 -727z"/>
</g>
</svg>
